<svg width="90" height="36" viewBox="0 0 90 36" fill="none" xmlns="http://www.w3.org/2000/svg">
<g filter="url(#filter0_ddd_305_3528)">
<rect x="1" width="88" height="32" rx="16" fill="white"/>
<path d="M12.128 20.5V11.908H15.074C16.426 11.908 17.498 12.292 18.29 13.06C19.082 13.824 19.478 14.87 19.478 16.198C19.478 17.498 19.076 18.54 18.272 19.324C17.472 20.108 16.406 20.5 15.074 20.5H12.128ZM13.556 19.192H14.978C15.926 19.192 16.672 18.938 17.216 18.43C17.76 17.918 18.032 17.176 18.032 16.204C18.032 15.212 17.758 14.468 17.21 13.972C16.662 13.476 15.92 13.228 14.984 13.228H13.556V19.192ZM23.9155 20.704C22.9275 20.704 22.1255 20.394 21.5095 19.774C20.8935 19.15 20.5855 18.338 20.5855 17.338C20.5855 16.394 20.8835 15.598 21.4795 14.95C22.0795 14.298 22.8755 13.972 23.8675 13.972C24.7875 13.972 25.5315 14.254 26.0995 14.818C26.6675 15.378 26.9515 16.084 26.9515 16.936V17.68H21.3415V16.744H25.6195C25.5955 16.284 25.4295 15.9 25.1215 15.592C24.8175 15.28 24.3995 15.124 23.8675 15.124C23.3115 15.124 22.8535 15.32 22.4935 15.712C22.1375 16.104 21.9595 16.642 21.9595 17.326C21.9595 18.042 22.1515 18.592 22.5355 18.976C22.9235 19.36 23.4155 19.552 24.0115 19.552C24.2715 19.552 24.5015 19.52 24.7015 19.456C24.9055 19.392 25.0935 19.302 25.2655 19.186C25.4415 19.066 25.6395 18.878 25.8595 18.622L26.7595 19.318C26.4995 19.682 26.2375 19.956 25.9735 20.14C25.7095 20.32 25.4175 20.458 25.0975 20.554C24.7775 20.654 24.3835 20.704 23.9155 20.704ZM30.5491 20.71C30.1091 20.71 29.7271 20.654 29.4031 20.542C29.0831 20.43 28.8011 20.272 28.5571 20.068C28.3171 19.864 28.1331 19.654 28.0051 19.438C27.8771 19.222 27.8131 19.114 27.8131 19.114L28.8031 18.508C28.8031 18.508 28.8551 18.59 28.9591 18.754C29.0631 18.914 29.1911 19.06 29.3431 19.192C29.4991 19.324 29.6791 19.426 29.8831 19.498C30.0871 19.566 30.3211 19.6 30.5851 19.6C30.9531 19.6 31.2471 19.528 31.4671 19.384C31.6871 19.236 31.7971 19.034 31.7971 18.778C31.7971 18.534 31.6931 18.344 31.4851 18.208C31.2811 18.068 30.8931 17.93 30.3211 17.794C29.4931 17.594 28.9131 17.34 28.5811 17.032C28.2531 16.72 28.0891 16.31 28.0891 15.802C28.0891 15.258 28.3171 14.816 28.7731 14.476C29.2291 14.136 29.8051 13.966 30.5011 13.966C30.8571 13.966 31.1731 14.004 31.4491 14.08C31.7291 14.156 31.9811 14.27 32.2051 14.422C32.4291 14.574 32.6071 14.734 32.7391 14.902C32.8711 15.066 32.9371 15.148 32.9371 15.148L31.9891 15.796C31.9891 15.796 31.9391 15.74 31.8391 15.628C31.7391 15.512 31.6231 15.412 31.4911 15.328C31.3591 15.24 31.2111 15.176 31.0471 15.136C30.8871 15.096 30.7051 15.076 30.5011 15.076C30.1611 15.076 29.8891 15.144 29.6851 15.28C29.4811 15.412 29.3791 15.576 29.3791 15.772C29.3791 15.952 29.4571 16.11 29.6131 16.246C29.7731 16.378 30.2171 16.54 30.9451 16.732C31.7211 16.928 32.2751 17.182 32.6071 17.494C32.9431 17.802 33.1111 18.204 33.1111 18.7C33.1111 19.304 32.8711 19.79 32.3911 20.158C31.9111 20.526 31.2971 20.71 30.5491 20.71ZM34.4712 20.5V14.176H35.8632V20.5H34.4712ZM35.1792 12.988C34.9392 12.988 34.7332 12.904 34.5612 12.736C34.3892 12.564 34.3032 12.36 34.3032 12.124C34.3032 11.88 34.3892 11.678 34.5612 11.518C34.7332 11.358 34.9392 11.278 35.1792 11.278C35.4232 11.278 35.6252 11.358 35.7852 11.518C35.9492 11.678 36.0312 11.88 36.0312 12.124C36.0312 12.36 35.9492 12.564 35.7852 12.736C35.6252 12.904 35.4232 12.988 35.1792 12.988ZM40.5067 23.326C40.0747 23.326 39.6887 23.278 39.3487 23.182C39.0127 23.09 38.7087 22.952 38.4367 22.768C38.1687 22.588 37.9527 22.39 37.7887 22.174C37.6247 21.962 37.5427 21.856 37.5427 21.856L38.5027 21.112C38.5027 21.112 38.5667 21.19 38.6947 21.346C38.8227 21.506 38.9707 21.648 39.1387 21.772C39.3107 21.9 39.5047 21.998 39.7207 22.066C39.9367 22.134 40.1787 22.168 40.4467 22.168C41.0907 22.168 41.5747 21.998 41.8987 21.658C42.2227 21.318 42.3847 20.852 42.3847 20.26V19.366H42.3427C42.1547 19.69 41.8767 19.952 41.5087 20.152C41.1407 20.348 40.7187 20.446 40.2427 20.446C39.3827 20.446 38.6747 20.15 38.1187 19.558C37.5627 18.966 37.2847 18.178 37.2847 17.194C37.2847 16.222 37.5727 15.442 38.1487 14.854C38.7247 14.266 39.4287 13.972 40.2607 13.972C40.7607 13.972 41.1927 14.078 41.5567 14.29C41.9247 14.498 42.1947 14.746 42.3667 15.034H42.7087L42.4087 15.388V14.176H43.7527V20.206C43.7527 21.194 43.4567 21.96 42.8647 22.504C42.2727 23.052 41.4867 23.326 40.5067 23.326ZM40.5307 19.276C41.0867 19.276 41.5407 19.088 41.8927 18.712C42.2487 18.332 42.4267 17.822 42.4267 17.182C42.4267 16.562 42.2507 16.064 41.8987 15.688C41.5467 15.312 41.0967 15.124 40.5487 15.124C40.0007 15.124 39.5527 15.31 39.2047 15.682C38.8567 16.05 38.6827 16.552 38.6827 17.188C38.6827 17.868 38.8587 18.386 39.2107 18.742C39.5627 19.098 40.0027 19.276 40.5307 19.276ZM45.5563 20.5V14.176H46.8823V15.292L46.7143 15.076H46.9243C47.1323 14.748 47.4283 14.482 47.8123 14.278C48.2003 14.074 48.6303 13.972 49.1023 13.972C49.8343 13.972 50.4023 14.176 50.8063 14.584C51.2103 14.992 51.4123 15.552 51.4123 16.264V20.5H50.0203V16.582C50.0203 16.118 49.9083 15.764 49.6843 15.52C49.4603 15.272 49.1063 15.148 48.6223 15.148C48.1383 15.148 47.7383 15.31 47.4223 15.634C47.1063 15.958 46.9483 16.362 46.9483 16.846V20.5H45.5563Z" fill="#9C9C9C"/>
<rect x="58.5" y="3.5" width="25" height="25" rx="12.5" fill="white"/>
<rect x="58.5" y="3.5" width="25" height="25" rx="12.5" stroke="#E8E8E8"/>
<path d="M69.2503 16.8752V15.1252M71.0003 17.7502V14.2502M72.7503 16.8752V15.1252M75.9587 18.2168V13.7835C75.9584 13.5895 75.9074 13.3988 75.8108 13.2305C75.7143 13.0622 75.5754 12.9221 75.408 12.8239L71.551 10.6073C71.3837 10.5101 71.1937 10.459 71.0003 10.459C70.8069 10.459 70.6169 10.5101 70.4497 10.6073L66.5927 12.8239C66.4249 12.9216 66.2857 13.0617 66.189 13.2301C66.0924 13.3985 66.0417 13.5893 66.042 13.7835V18.218C66.0424 18.412 66.0934 18.6025 66.19 18.7707C66.2865 18.9388 66.4253 19.0789 66.5927 19.177L70.4497 21.3937C70.6169 21.4908 70.8069 21.542 71.0003 21.542C71.1937 21.542 71.3837 21.4908 71.551 21.3937L75.408 19.177C75.5759 19.0793 75.7151 18.9391 75.8118 18.7706C75.9084 18.6021 75.9591 18.4111 75.9587 18.2168Z" stroke="#8E76FF" stroke-linecap="round" stroke-linejoin="round"/>
</g>
<defs>
<filter id="filter0_ddd_305_3528" x="0" y="0" width="90" height="36" filterUnits="userSpaceOnUse" color-interpolation-filters="sRGB">
<feFlood flood-opacity="0" result="BackgroundImageFix"/>
<feColorMatrix in="SourceAlpha" type="matrix" values="0 0 0 0 0 0 0 0 0 0 0 0 0 0 0 0 0 0 127 0" result="hardAlpha"/>
<feOffset dy="1"/>
<feGaussianBlur stdDeviation="0.5"/>
<feColorMatrix type="matrix" values="0 0 0 0 0.619608 0 0 0 0 0.619608 0 0 0 0 0.619608 0 0 0 0.09 0"/>
<feBlend mode="normal" in2="BackgroundImageFix" result="effect1_dropShadow_305_3528"/>
<feColorMatrix in="SourceAlpha" type="matrix" values="0 0 0 0 0 0 0 0 0 0 0 0 0 0 0 0 0 0 127 0" result="hardAlpha"/>
<feOffset dy="2"/>
<feGaussianBlur stdDeviation="0.5"/>
<feColorMatrix type="matrix" values="0 0 0 0 0.619608 0 0 0 0 0.619608 0 0 0 0 0.619608 0 0 0 0.05 0"/>
<feBlend mode="normal" in2="effect1_dropShadow_305_3528" result="effect2_dropShadow_305_3528"/>
<feColorMatrix in="SourceAlpha" type="matrix" values="0 0 0 0 0 0 0 0 0 0 0 0 0 0 0 0 0 0 127 0" result="hardAlpha"/>
<feOffset dy="3"/>
<feGaussianBlur stdDeviation="0.5"/>
<feColorMatrix type="matrix" values="0 0 0 0 0.619608 0 0 0 0 0.619608 0 0 0 0 0.619608 0 0 0 0.01 0"/>
<feBlend mode="normal" in2="effect2_dropShadow_305_3528" result="effect3_dropShadow_305_3528"/>
<feBlend mode="normal" in="SourceGraphic" in2="effect3_dropShadow_305_3528" result="shape"/>
</filter>
</defs>
</svg>
