<svg width="112" height="36" viewBox="0 0 112 36" fill="none" xmlns="http://www.w3.org/2000/svg">
<g filter="url(#filter0_ddd_305_3630)">
<rect x="1" width="110" height="32" rx="16" fill="white"/>
<rect x="6.5" y="3.5" width="25" height="25" rx="12.5" fill="white"/>
<rect x="6.5" y="3.5" width="25" height="25" rx="12.5" stroke="#E8E8E8"/>
<path d="M17.2503 16.8752V15.1252M19.0003 17.7502V14.2502M20.7503 16.8752V15.1252M23.9587 18.2168V13.7835C23.9584 13.5895 23.9074 13.3988 23.8108 13.2305C23.7143 13.0622 23.5754 12.9221 23.408 12.8239L19.551 10.6073C19.3837 10.5101 19.1937 10.459 19.0003 10.459C18.8069 10.459 18.6169 10.5101 18.4497 10.6073L14.5927 12.8239C14.4249 12.9216 14.2857 13.0617 14.189 13.2301C14.0924 13.3985 14.0417 13.5893 14.042 13.7835V18.218C14.0424 18.412 14.0934 18.6025 14.19 18.7707C14.2865 18.9388 14.4253 19.0789 14.5927 19.177L18.4497 21.3937C18.6169 21.4908 18.8069 21.542 19.0003 21.542C19.1937 21.542 19.3837 21.4908 19.551 21.3937L23.408 19.177C23.5759 19.0793 23.7151 18.9391 23.8118 18.7706C23.9084 18.6021 23.9591 18.4111 23.9587 18.2168Z" stroke="#FF7043" stroke-linecap="round" stroke-linejoin="round"/>
<path d="M40.78 20.704C40.244 20.704 39.768 20.632 39.352 20.488C38.94 20.34 38.59 20.126 38.302 19.846C38.018 19.562 37.806 19.266 37.666 18.958C37.53 18.65 37.462 18.496 37.462 18.496L38.68 17.938C38.68 17.938 38.736 18.056 38.848 18.292C38.96 18.528 39.106 18.738 39.286 18.922C39.47 19.102 39.688 19.24 39.94 19.336C40.196 19.428 40.492 19.474 40.828 19.474C41.336 19.474 41.736 19.354 42.028 19.114C42.324 18.87 42.472 18.558 42.472 18.178C42.472 17.802 42.338 17.502 42.07 17.278C41.802 17.05 41.254 16.82 40.426 16.588C39.466 16.312 38.794 15.978 38.41 15.586C38.03 15.19 37.84 14.69 37.84 14.086C37.84 13.386 38.104 12.814 38.632 12.37C39.16 11.926 39.852 11.704 40.708 11.704C41.164 11.704 41.568 11.762 41.92 11.878C42.272 11.994 42.578 12.166 42.838 12.394C43.098 12.622 43.296 12.86 43.432 13.108C43.572 13.356 43.642 13.48 43.642 13.48L42.448 14.038C42.448 14.038 42.402 13.962 42.31 13.81C42.218 13.654 42.092 13.506 41.932 13.366C41.776 13.222 41.596 13.114 41.392 13.042C41.188 12.966 40.95 12.928 40.678 12.928C40.23 12.928 39.874 13.026 39.61 13.222C39.346 13.418 39.214 13.678 39.214 14.002C39.214 14.318 39.342 14.576 39.598 14.776C39.858 14.972 40.402 15.192 41.23 15.436C42.17 15.704 42.844 16.05 43.252 16.474C43.66 16.894 43.864 17.432 43.864 18.088C43.864 18.856 43.584 19.484 43.024 19.972C42.464 20.46 41.716 20.704 40.78 20.704ZM47.562 20.704C46.822 20.704 46.25 20.498 45.846 20.086C45.446 19.67 45.246 19.082 45.246 18.322V14.176H46.632V18.058C46.632 18.57 46.748 18.948 46.98 19.192C47.212 19.432 47.562 19.552 48.03 19.552C48.486 19.552 48.87 19.39 49.182 19.066C49.494 18.738 49.65 18.324 49.65 17.824V14.176H51.042V20.5H49.716V18.982L50.358 19.618H49.68C49.484 19.93 49.202 20.19 48.834 20.398C48.466 20.602 48.042 20.704 47.562 20.704ZM52.8414 20.5V14.176H54.1674V15.238L54.0534 15.07H54.2094C54.4054 14.75 54.6894 14.488 55.0614 14.284C55.4374 14.076 55.8454 13.972 56.2854 13.972C56.7734 13.972 57.1894 14.078 57.5334 14.29C57.8814 14.502 58.1274 14.812 58.2714 15.22C58.4914 14.832 58.7974 14.528 59.1894 14.308C59.5854 14.084 60.0254 13.972 60.5094 13.972C61.2294 13.972 61.7794 14.176 62.1594 14.584C62.5434 14.992 62.7354 15.562 62.7354 16.294V20.5H61.3494V16.594C61.3494 16.106 61.2374 15.744 61.0134 15.508C60.7934 15.268 60.4654 15.148 60.0294 15.148C59.6014 15.148 59.2354 15.31 58.9314 15.634C58.6314 15.958 58.4814 16.37 58.4814 16.87V20.5H57.0954V16.588C57.0954 16.092 56.9794 15.728 56.7474 15.496C56.5194 15.264 56.1934 15.148 55.7694 15.148C55.3454 15.148 54.9834 15.314 54.6834 15.646C54.3834 15.974 54.2334 16.372 54.2334 16.84V20.5H52.8414ZM64.4664 20.5V14.176H65.7924V15.238L65.6784 15.07H65.8344C66.0304 14.75 66.3144 14.488 66.6864 14.284C67.0624 14.076 67.4704 13.972 67.9104 13.972C68.3984 13.972 68.8144 14.078 69.1584 14.29C69.5064 14.502 69.7524 14.812 69.8964 15.22C70.1164 14.832 70.4224 14.528 70.8144 14.308C71.2104 14.084 71.6504 13.972 72.1344 13.972C72.8544 13.972 73.4044 14.176 73.7844 14.584C74.1684 14.992 74.3604 15.562 74.3604 16.294V20.5H72.9744V16.594C72.9744 16.106 72.8624 15.744 72.6384 15.508C72.4184 15.268 72.0904 15.148 71.6544 15.148C71.2264 15.148 70.8604 15.31 70.5564 15.634C70.2564 15.958 70.1064 16.37 70.1064 16.87V20.5H68.7204V16.588C68.7204 16.092 68.6044 15.728 68.3724 15.496C68.1444 15.264 67.8184 15.148 67.3944 15.148C66.9704 15.148 66.6084 15.314 66.3084 15.646C66.0084 15.974 65.8584 16.372 65.8584 16.84V20.5H64.4664ZM77.9934 20.704C77.3094 20.704 76.7474 20.514 76.3074 20.134C75.8674 19.75 75.6474 19.228 75.6474 18.568C75.6474 17.9 75.8914 17.374 76.3794 16.99C76.8674 16.602 77.5014 16.408 78.2814 16.408C78.6534 16.408 78.9954 16.45 79.3074 16.534C79.6194 16.614 79.8894 16.722 80.1174 16.858V16.462C80.1174 16.022 79.9714 15.686 79.6794 15.454C79.3874 15.222 79.0074 15.106 78.5394 15.106C78.2874 15.106 78.0654 15.134 77.8734 15.19C77.6854 15.242 77.5174 15.308 77.3694 15.388C77.2254 15.468 77.0774 15.57 76.9254 15.694C76.7734 15.814 76.6974 15.874 76.6974 15.874L75.9354 15.046C75.9354 15.046 76.0294 14.97 76.2174 14.818C76.4054 14.662 76.6194 14.518 76.8594 14.386C77.1034 14.254 77.3674 14.152 77.6514 14.08C77.9354 14.004 78.2734 13.966 78.6654 13.966C79.5174 13.966 80.1994 14.188 80.7114 14.632C81.2234 15.072 81.4794 15.682 81.4794 16.462V20.5H80.1594V19.234L80.4354 19.666H80.1174C79.9294 19.954 79.6514 20.2 79.2834 20.404C78.9154 20.604 78.4854 20.704 77.9934 20.704ZM78.3414 19.654C78.8454 19.654 79.2694 19.478 79.6134 19.126C79.9614 18.774 80.1354 18.354 80.1354 17.866V17.83C79.9434 17.67 79.7054 17.546 79.4214 17.458C79.1414 17.366 78.8514 17.32 78.5514 17.32C78.0794 17.32 77.7074 17.424 77.4354 17.632C77.1634 17.84 77.0274 18.13 77.0274 18.502C77.0274 18.862 77.1454 19.144 77.3814 19.348C77.6174 19.552 77.9374 19.654 78.3414 19.654ZM83.2047 20.5V14.176H84.5187V15.298L84.3747 15.154H84.5607C84.6887 14.806 84.9147 14.522 85.2387 14.302C85.5667 14.078 85.9207 13.966 86.3007 13.966C86.4327 13.966 86.5667 13.98 86.7027 14.008C86.8387 14.032 86.9647 14.068 87.0807 14.116C87.1967 14.164 87.2547 14.188 87.2547 14.188L87.0507 15.472C87.0507 15.472 86.9947 15.45 86.8827 15.406C86.7707 15.358 86.6507 15.32 86.5227 15.292C86.3987 15.264 86.2827 15.25 86.1747 15.25C85.7307 15.25 85.3567 15.418 85.0527 15.754C84.7487 16.09 84.5967 16.562 84.5967 17.17V20.5H83.2047ZM88.3852 20.5V14.176H89.7772V20.5H88.3852ZM89.0932 12.988C88.8532 12.988 88.6472 12.904 88.4752 12.736C88.3032 12.564 88.2172 12.36 88.2172 12.124C88.2172 11.88 88.3032 11.678 88.4752 11.518C88.6472 11.358 88.8532 11.278 89.0932 11.278C89.3372 11.278 89.5392 11.358 89.6992 11.518C89.8632 11.678 89.9452 11.88 89.9452 12.124C89.9452 12.36 89.8632 12.564 89.6992 12.736C89.5392 12.904 89.3372 12.988 89.0932 12.988ZM91.1508 20.5V19.498L94.5708 15.334H91.2528V14.176H96.2388V15.196L92.8308 19.348H96.3708V20.5H91.1508ZM100.494 20.704C99.5056 20.704 98.7036 20.394 98.0876 19.774C97.4716 19.15 97.1636 18.338 97.1636 17.338C97.1636 16.394 97.4616 15.598 98.0576 14.95C98.6576 14.298 99.4536 13.972 100.446 13.972C101.366 13.972 102.11 14.254 102.678 14.818C103.246 15.378 103.53 16.084 103.53 16.936V17.68H97.9196V16.744H102.198C102.174 16.284 102.008 15.9 101.7 15.592C101.396 15.28 100.978 15.124 100.446 15.124C99.8896 15.124 99.4316 15.32 99.0716 15.712C98.7156 16.104 98.5376 16.642 98.5376 17.326C98.5376 18.042 98.7296 18.592 99.1136 18.976C99.5016 19.36 99.9936 19.552 100.59 19.552C100.85 19.552 101.08 19.52 101.28 19.456C101.484 19.392 101.672 19.302 101.844 19.186C102.02 19.066 102.218 18.878 102.438 18.622L103.338 19.318C103.078 19.682 102.816 19.956 102.552 20.14C102.288 20.32 101.996 20.458 101.676 20.554C101.356 20.654 100.962 20.704 100.494 20.704Z" fill="#9C9C9C"/>
</g>
<defs>
<filter id="filter0_ddd_305_3630" x="0" y="0" width="112" height="36" filterUnits="userSpaceOnUse" color-interpolation-filters="sRGB">
<feFlood flood-opacity="0" result="BackgroundImageFix"/>
<feColorMatrix in="SourceAlpha" type="matrix" values="0 0 0 0 0 0 0 0 0 0 0 0 0 0 0 0 0 0 127 0" result="hardAlpha"/>
<feOffset dy="1"/>
<feGaussianBlur stdDeviation="0.5"/>
<feColorMatrix type="matrix" values="0 0 0 0 0.619608 0 0 0 0 0.619608 0 0 0 0 0.619608 0 0 0 0.09 0"/>
<feBlend mode="normal" in2="BackgroundImageFix" result="effect1_dropShadow_305_3630"/>
<feColorMatrix in="SourceAlpha" type="matrix" values="0 0 0 0 0 0 0 0 0 0 0 0 0 0 0 0 0 0 127 0" result="hardAlpha"/>
<feOffset dy="2"/>
<feGaussianBlur stdDeviation="0.5"/>
<feColorMatrix type="matrix" values="0 0 0 0 0.619608 0 0 0 0 0.619608 0 0 0 0 0.619608 0 0 0 0.05 0"/>
<feBlend mode="normal" in2="effect1_dropShadow_305_3630" result="effect2_dropShadow_305_3630"/>
<feColorMatrix in="SourceAlpha" type="matrix" values="0 0 0 0 0 0 0 0 0 0 0 0 0 0 0 0 0 0 127 0" result="hardAlpha"/>
<feOffset dy="3"/>
<feGaussianBlur stdDeviation="0.5"/>
<feColorMatrix type="matrix" values="0 0 0 0 0.619608 0 0 0 0 0.619608 0 0 0 0 0.619608 0 0 0 0.01 0"/>
<feBlend mode="normal" in2="effect2_dropShadow_305_3630" result="effect3_dropShadow_305_3630"/>
<feBlend mode="normal" in="SourceGraphic" in2="effect3_dropShadow_305_3630" result="shape"/>
</filter>
</defs>
</svg>
