<svg width="82" height="36" viewBox="0 0 82 36" fill="none" xmlns="http://www.w3.org/2000/svg">
<g filter="url(#filter0_ddd_305_3642)">
<rect x="1" width="80" height="32" rx="16" fill="white"/>
<path d="M12.142 20.704C10.878 20.704 9.81 20.292 8.938 19.468C8.07 18.64 7.636 17.548 7.636 16.192C7.636 14.88 8.068 13.804 8.932 12.964C9.796 12.12 10.866 11.698 12.142 11.698C13.394 11.698 14.456 12.118 15.328 12.958C16.204 13.798 16.642 14.876 16.642 16.192C16.642 17.492 16.208 18.57 15.34 19.426C14.476 20.278 13.41 20.704 12.142 20.704ZM12.142 19.372C13.01 19.372 13.734 19.084 14.314 18.508C14.898 17.928 15.19 17.156 15.19 16.192C15.19 15.248 14.894 14.486 14.302 13.906C13.714 13.326 12.994 13.036 12.142 13.036C11.278 13.036 10.552 13.322 9.964 13.894C9.38 14.462 9.088 15.228 9.088 16.192C9.088 17.16 9.382 17.932 9.97 18.508C10.558 19.084 11.282 19.372 12.142 19.372ZM14.818 21.394L12.394 17.812L13.498 17.092L15.928 20.668L14.818 21.394ZM20.4213 20.704C19.6813 20.704 19.1093 20.498 18.7053 20.086C18.3053 19.67 18.1053 19.082 18.1053 18.322V14.176H19.4913V18.058C19.4913 18.57 19.6073 18.948 19.8393 19.192C20.0713 19.432 20.4213 19.552 20.8893 19.552C21.3453 19.552 21.7293 19.39 22.0413 19.066C22.3533 18.738 22.5093 18.324 22.5093 17.824V14.176H23.9013V20.5H22.5753V18.982L23.2173 19.618H22.5393C22.3433 19.93 22.0613 20.19 21.6933 20.398C21.3253 20.602 20.9013 20.704 20.4213 20.704ZM28.7068 20.704C27.6908 20.704 26.8648 20.386 26.2288 19.75C25.5968 19.114 25.2808 18.312 25.2808 17.344C25.2808 16.364 25.6008 15.556 26.2408 14.92C26.8808 14.284 27.7028 13.966 28.7068 13.966C29.7148 13.966 30.5388 14.288 31.1788 14.932C31.8188 15.576 32.1388 16.38 32.1388 17.344C32.1388 18.304 31.8228 19.104 31.1908 19.744C30.5588 20.384 29.7308 20.704 28.7068 20.704ZM28.7068 19.486C29.2948 19.486 29.7788 19.288 30.1588 18.892C30.5388 18.492 30.7288 17.976 30.7288 17.344C30.7288 16.712 30.5388 16.196 30.1588 15.796C29.7828 15.392 29.2988 15.19 28.7068 15.19C28.1148 15.19 27.6288 15.39 27.2488 15.79C26.8728 16.19 26.6848 16.708 26.6848 17.344C26.6848 17.98 26.8728 18.496 27.2488 18.892C27.6288 19.288 28.1148 19.486 28.7068 19.486ZM35.8335 20.704C35.2575 20.704 34.8035 20.542 34.4715 20.218C34.1395 19.894 33.9735 19.428 33.9735 18.82V12.526H35.3595V18.646C35.3595 18.938 35.4215 19.156 35.5455 19.3C35.6695 19.444 35.8655 19.516 36.1335 19.516C36.2175 19.516 36.3095 19.506 36.4095 19.486C36.5095 19.462 36.6235 19.424 36.7515 19.372C36.8795 19.316 36.9435 19.288 36.9435 19.288L37.1895 20.356C37.1895 20.356 37.1135 20.392 36.9615 20.464C36.8095 20.532 36.6415 20.588 36.4575 20.632C36.2735 20.68 36.0655 20.704 35.8335 20.704ZM32.8815 15.334V14.176H36.9915V15.334H32.8815ZM41.3491 20.704C40.3611 20.704 39.5591 20.394 38.9431 19.774C38.3271 19.15 38.0191 18.338 38.0191 17.338C38.0191 16.394 38.3171 15.598 38.9131 14.95C39.5131 14.298 40.3091 13.972 41.3011 13.972C42.2211 13.972 42.9651 14.254 43.5331 14.818C44.1011 15.378 44.3851 16.084 44.3851 16.936V17.68H38.7751V16.744H43.0531C43.0291 16.284 42.8631 15.9 42.5551 15.592C42.2511 15.28 41.8331 15.124 41.3011 15.124C40.7451 15.124 40.2871 15.32 39.9271 15.712C39.5711 16.104 39.3931 16.642 39.3931 17.326C39.3931 18.042 39.5851 18.592 39.9691 18.976C40.3571 19.36 40.8491 19.552 41.4451 19.552C41.7051 19.552 41.9351 19.52 42.1351 19.456C42.3391 19.392 42.5271 19.302 42.6991 19.186C42.8751 19.066 43.0731 18.878 43.2931 18.622L44.1931 19.318C43.9331 19.682 43.6711 19.956 43.4071 20.14C43.1431 20.32 42.8511 20.458 42.5311 20.554C42.2111 20.654 41.8171 20.704 41.3491 20.704Z" fill="#9C9C9C"/>
<rect x="50.5" y="3.5" width="25" height="25" rx="12.5" fill="white"/>
<rect x="50.5" y="3.5" width="25" height="25" rx="12.5" stroke="#E8E8E8"/>
<path d="M61.2503 16.8752V15.1252M63.0003 17.7502V14.2502M64.7503 16.8752V15.1252M67.9587 18.2168V13.7835C67.9584 13.5895 67.9074 13.3988 67.8108 13.2305C67.7143 13.0622 67.5754 12.9221 67.408 12.8239L63.551 10.6073C63.3837 10.5101 63.1937 10.459 63.0003 10.459C62.8069 10.459 62.6169 10.5101 62.4497 10.6073L58.5927 12.8239C58.4249 12.9216 58.2857 13.0617 58.189 13.2301C58.0924 13.3985 58.0417 13.5893 58.042 13.7835V18.218C58.0424 18.412 58.0934 18.6025 58.19 18.7707C58.2865 18.9388 58.4253 19.0789 58.5927 19.177L62.4497 21.3937C62.6169 21.4908 62.8069 21.542 63.0003 21.542C63.1937 21.542 63.3837 21.4908 63.551 21.3937L67.408 19.177C67.5759 19.0793 67.7151 18.9391 67.8118 18.7706C67.9084 18.6021 67.9591 18.4111 67.9587 18.2168Z" stroke="black" stroke-linecap="round" stroke-linejoin="round"/>
</g>
<defs>
<filter id="filter0_ddd_305_3642" x="0" y="0" width="82" height="36" filterUnits="userSpaceOnUse" color-interpolation-filters="sRGB">
<feFlood flood-opacity="0" result="BackgroundImageFix"/>
<feColorMatrix in="SourceAlpha" type="matrix" values="0 0 0 0 0 0 0 0 0 0 0 0 0 0 0 0 0 0 127 0" result="hardAlpha"/>
<feOffset dy="1"/>
<feGaussianBlur stdDeviation="0.5"/>
<feColorMatrix type="matrix" values="0 0 0 0 0.619608 0 0 0 0 0.619608 0 0 0 0 0.619608 0 0 0 0.09 0"/>
<feBlend mode="normal" in2="BackgroundImageFix" result="effect1_dropShadow_305_3642"/>
<feColorMatrix in="SourceAlpha" type="matrix" values="0 0 0 0 0 0 0 0 0 0 0 0 0 0 0 0 0 0 127 0" result="hardAlpha"/>
<feOffset dy="2"/>
<feGaussianBlur stdDeviation="0.5"/>
<feColorMatrix type="matrix" values="0 0 0 0 0.619608 0 0 0 0 0.619608 0 0 0 0 0.619608 0 0 0 0.05 0"/>
<feBlend mode="normal" in2="effect1_dropShadow_305_3642" result="effect2_dropShadow_305_3642"/>
<feColorMatrix in="SourceAlpha" type="matrix" values="0 0 0 0 0 0 0 0 0 0 0 0 0 0 0 0 0 0 127 0" result="hardAlpha"/>
<feOffset dy="3"/>
<feGaussianBlur stdDeviation="0.5"/>
<feColorMatrix type="matrix" values="0 0 0 0 0.619608 0 0 0 0 0.619608 0 0 0 0 0.619608 0 0 0 0.01 0"/>
<feBlend mode="normal" in2="effect2_dropShadow_305_3642" result="effect3_dropShadow_305_3642"/>
<feBlend mode="normal" in="SourceGraphic" in2="effect3_dropShadow_305_3642" result="shape"/>
</filter>
</defs>
</svg>
