<svg width="115" height="36" viewBox="0 0 115 36" fill="none" xmlns="http://www.w3.org/2000/svg">
<g filter="url(#filter0_ddd_305_3648)">
<rect x="1" width="113" height="32" rx="16" fill="white"/>
<rect x="6.5" y="3.5" width="25" height="25" rx="12.5" fill="white"/>
<rect x="6.5" y="3.5" width="25" height="25" rx="12.5" stroke="#E8E8E8"/>
<path d="M17.2503 16.8752V15.1252M19.0003 17.7502V14.2502M20.7503 16.8752V15.1252M23.9587 18.2168V13.7835C23.9584 13.5895 23.9074 13.3988 23.8108 13.2305C23.7143 13.0622 23.5754 12.9221 23.408 12.8239L19.551 10.6073C19.3837 10.5101 19.1937 10.459 19.0003 10.459C18.8069 10.459 18.6169 10.5101 18.4497 10.6073L14.5927 12.8239C14.4249 12.9216 14.2857 13.0617 14.189 13.2301C14.0924 13.3985 14.0417 13.5893 14.042 13.7835V18.218C14.0424 18.412 14.0934 18.6025 14.19 18.7707C14.2865 18.9388 14.4253 19.0789 14.5927 19.177L18.4497 21.3937C18.6169 21.4908 18.8069 21.542 19.0003 21.542C19.1937 21.542 19.3837 21.4908 19.551 21.3937L23.408 19.177C23.5759 19.0793 23.7151 18.9391 23.8118 18.7706C23.9084 18.6021 23.9591 18.4111 23.9587 18.2168Z" stroke="#60D669" stroke-linecap="round" stroke-linejoin="round"/>
<path d="M38.128 20.5V11.908H41.422C42.21 11.908 42.842 12.118 43.318 12.538C43.794 12.954 44.032 13.478 44.032 14.11C44.032 14.598 43.912 15.002 43.672 15.322C43.432 15.638 43.12 15.868 42.736 16.012V16.054C43.224 16.166 43.622 16.404 43.93 16.768C44.242 17.132 44.398 17.576 44.398 18.1C44.398 18.788 44.152 19.36 43.66 19.816C43.172 20.272 42.52 20.5 41.704 20.5H38.128ZM39.538 19.288H41.542C41.95 19.288 42.29 19.168 42.562 18.928C42.834 18.688 42.97 18.376 42.97 17.992C42.97 17.608 42.83 17.29 42.55 17.038C42.274 16.782 41.914 16.654 41.47 16.654H39.136V15.532H41.272C41.676 15.532 42.006 15.422 42.262 15.202C42.518 14.978 42.646 14.68 42.646 14.308C42.646 13.936 42.516 13.648 42.256 13.444C42 13.236 41.676 13.132 41.284 13.132H39.538V19.288ZM45.8922 20.5V14.176H47.2062V15.298L47.0622 15.154H47.2482C47.3762 14.806 47.6022 14.522 47.9262 14.302C48.2542 14.078 48.6082 13.966 48.9882 13.966C49.1202 13.966 49.2542 13.98 49.3902 14.008C49.5262 14.032 49.6522 14.068 49.7682 14.116C49.8842 14.164 49.9422 14.188 49.9422 14.188L49.7382 15.472C49.7382 15.472 49.6822 15.45 49.5702 15.406C49.4582 15.358 49.3382 15.32 49.2102 15.292C49.0862 15.264 48.9702 15.25 48.8622 15.25C48.4182 15.25 48.0442 15.418 47.7402 15.754C47.4362 16.09 47.2842 16.562 47.2842 17.17V20.5H45.8922ZM53.7498 20.704C52.7338 20.704 51.9078 20.386 51.2718 19.75C50.6398 19.114 50.3238 18.312 50.3238 17.344C50.3238 16.364 50.6438 15.556 51.2838 14.92C51.9238 14.284 52.7458 13.966 53.7498 13.966C54.7578 13.966 55.5818 14.288 56.2218 14.932C56.8618 15.576 57.1818 16.38 57.1818 17.344C57.1818 18.304 56.8658 19.104 56.2338 19.744C55.6018 20.384 54.7738 20.704 53.7498 20.704ZM53.7498 19.486C54.3378 19.486 54.8218 19.288 55.2018 18.892C55.5818 18.492 55.7718 17.976 55.7718 17.344C55.7718 16.712 55.5818 16.196 55.2018 15.796C54.8258 15.392 54.3418 15.19 53.7498 15.19C53.1578 15.19 52.6718 15.39 52.2918 15.79C51.9158 16.19 51.7278 16.708 51.7278 17.344C51.7278 17.98 51.9158 18.496 52.2918 18.892C52.6718 19.288 53.1578 19.486 53.7498 19.486ZM60.4622 20.704C59.7782 20.704 59.2162 20.514 58.7762 20.134C58.3362 19.75 58.1162 19.228 58.1162 18.568C58.1162 17.9 58.3602 17.374 58.8482 16.99C59.3362 16.602 59.9702 16.408 60.7502 16.408C61.1222 16.408 61.4642 16.45 61.7762 16.534C62.0882 16.614 62.3582 16.722 62.5862 16.858V16.462C62.5862 16.022 62.4402 15.686 62.1482 15.454C61.8562 15.222 61.4762 15.106 61.0082 15.106C60.7562 15.106 60.5342 15.134 60.3422 15.19C60.1542 15.242 59.9862 15.308 59.8382 15.388C59.6942 15.468 59.5462 15.57 59.3942 15.694C59.2422 15.814 59.1662 15.874 59.1662 15.874L58.4042 15.046C58.4042 15.046 58.4982 14.97 58.6862 14.818C58.8742 14.662 59.0882 14.518 59.3282 14.386C59.5722 14.254 59.8362 14.152 60.1202 14.08C60.4042 14.004 60.7422 13.966 61.1342 13.966C61.9862 13.966 62.6682 14.188 63.1802 14.632C63.6922 15.072 63.9482 15.682 63.9482 16.462V20.5H62.6282V19.234L62.9042 19.666H62.5862C62.3982 19.954 62.1202 20.2 61.7522 20.404C61.3842 20.604 60.9542 20.704 60.4622 20.704ZM60.8102 19.654C61.3142 19.654 61.7382 19.478 62.0822 19.126C62.4302 18.774 62.6042 18.354 62.6042 17.866V17.83C62.4122 17.67 62.1742 17.546 61.8902 17.458C61.6102 17.366 61.3202 17.32 61.0202 17.32C60.5482 17.32 60.1762 17.424 59.9042 17.632C59.6322 17.84 59.4962 18.13 59.4962 18.502C59.4962 18.862 59.6142 19.144 59.8502 19.348C60.0862 19.552 60.4062 19.654 60.8102 19.654ZM68.3194 20.704C67.4474 20.704 66.7174 20.396 66.1294 19.78C65.5454 19.16 65.2534 18.35 65.2534 17.35C65.2534 16.334 65.5434 15.518 66.1234 14.902C66.7034 14.286 67.4154 13.978 68.2594 13.978C68.7594 13.978 69.1994 14.088 69.5794 14.308C69.9634 14.524 70.2494 14.79 70.4374 15.106H70.4794V11.71H71.8654V20.5H70.5154V19.39L70.7134 19.642H70.4734C70.2654 19.95 69.9754 20.204 69.6034 20.404C69.2314 20.604 68.8034 20.704 68.3194 20.704ZM68.5954 19.534C69.1554 19.534 69.6174 19.336 69.9814 18.94C70.3454 18.544 70.5274 18.016 70.5274 17.356C70.5274 16.696 70.3414 16.164 69.9694 15.76C69.5974 15.356 69.1394 15.154 68.5954 15.154C68.0274 15.154 67.5614 15.356 67.1974 15.76C66.8334 16.164 66.6514 16.692 66.6514 17.344C66.6514 18 66.8314 18.53 67.1914 18.934C67.5554 19.334 68.0234 19.534 68.5954 19.534ZM76.5936 20.71C75.5936 20.71 74.7856 20.39 74.1696 19.75C73.5536 19.11 73.2456 18.304 73.2456 17.332C73.2456 16.36 73.5516 15.556 74.1636 14.92C74.7796 14.284 75.5976 13.966 76.6176 13.966C76.9736 13.966 77.2996 14.01 77.5956 14.098C77.8916 14.182 78.1656 14.312 78.4176 14.488C78.6736 14.66 78.9416 14.924 79.2216 15.28L78.2376 16.036C78.0456 15.804 77.8736 15.632 77.7216 15.52C77.5736 15.404 77.4076 15.32 77.2236 15.268C77.0396 15.216 76.8316 15.19 76.5996 15.19C76.0436 15.19 75.5796 15.388 75.2076 15.784C74.8356 16.176 74.6496 16.69 74.6496 17.326C74.6496 17.966 74.8376 18.486 75.2136 18.886C75.5896 19.282 76.0516 19.48 76.5996 19.48C76.8396 19.48 77.0576 19.45 77.2536 19.39C77.4536 19.326 77.6296 19.238 77.7816 19.126C77.9376 19.014 78.1156 18.824 78.3156 18.556L79.3596 19.24C79.0836 19.644 78.8156 19.94 78.5556 20.128C78.2956 20.316 77.9996 20.46 77.6676 20.56C77.3356 20.66 76.9776 20.71 76.5936 20.71ZM82.4465 20.704C81.7625 20.704 81.2005 20.514 80.7605 20.134C80.3205 19.75 80.1005 19.228 80.1005 18.568C80.1005 17.9 80.3445 17.374 80.8325 16.99C81.3205 16.602 81.9545 16.408 82.7345 16.408C83.1065 16.408 83.4485 16.45 83.7605 16.534C84.0725 16.614 84.3425 16.722 84.5705 16.858V16.462C84.5705 16.022 84.4245 15.686 84.1325 15.454C83.8405 15.222 83.4605 15.106 82.9925 15.106C82.7405 15.106 82.5185 15.134 82.3265 15.19C82.1385 15.242 81.9705 15.308 81.8225 15.388C81.6785 15.468 81.5305 15.57 81.3785 15.694C81.2265 15.814 81.1505 15.874 81.1505 15.874L80.3885 15.046C80.3885 15.046 80.4825 14.97 80.6705 14.818C80.8585 14.662 81.0725 14.518 81.3125 14.386C81.5565 14.254 81.8205 14.152 82.1045 14.08C82.3885 14.004 82.7265 13.966 83.1185 13.966C83.9705 13.966 84.6525 14.188 85.1645 14.632C85.6765 15.072 85.9325 15.682 85.9325 16.462V20.5H84.6125V19.234L84.8885 19.666H84.5705C84.3825 19.954 84.1045 20.2 83.7365 20.404C83.3685 20.604 82.9385 20.704 82.4465 20.704ZM82.7945 19.654C83.2985 19.654 83.7225 19.478 84.0665 19.126C84.4145 18.774 84.5885 18.354 84.5885 17.866V17.83C84.3965 17.67 84.1585 17.546 83.8745 17.458C83.5945 17.366 83.3045 17.32 83.0045 17.32C82.5325 17.32 82.1605 17.424 81.8885 17.632C81.6165 17.84 81.4805 18.13 81.4805 18.502C81.4805 18.862 81.5985 19.144 81.8345 19.348C82.0705 19.552 82.3905 19.654 82.7945 19.654ZM89.8538 20.71C89.4138 20.71 89.0318 20.654 88.7078 20.542C88.3878 20.43 88.1058 20.272 87.8618 20.068C87.6218 19.864 87.4378 19.654 87.3098 19.438C87.1818 19.222 87.1178 19.114 87.1178 19.114L88.1078 18.508C88.1078 18.508 88.1598 18.59 88.2638 18.754C88.3678 18.914 88.4958 19.06 88.6478 19.192C88.8038 19.324 88.9838 19.426 89.1878 19.498C89.3918 19.566 89.6258 19.6 89.8898 19.6C90.2578 19.6 90.5518 19.528 90.7718 19.384C90.9918 19.236 91.1018 19.034 91.1018 18.778C91.1018 18.534 90.9978 18.344 90.7898 18.208C90.5858 18.068 90.1978 17.93 89.6258 17.794C88.7978 17.594 88.2178 17.34 87.8858 17.032C87.5578 16.72 87.3938 16.31 87.3938 15.802C87.3938 15.258 87.6218 14.816 88.0778 14.476C88.5338 14.136 89.1098 13.966 89.8058 13.966C90.1618 13.966 90.4778 14.004 90.7538 14.08C91.0338 14.156 91.2858 14.27 91.5098 14.422C91.7338 14.574 91.9118 14.734 92.0438 14.902C92.1758 15.066 92.2418 15.148 92.2418 15.148L91.2938 15.796C91.2938 15.796 91.2438 15.74 91.1438 15.628C91.0438 15.512 90.9278 15.412 90.7958 15.328C90.6638 15.24 90.5158 15.176 90.3518 15.136C90.1918 15.096 90.0098 15.076 89.8058 15.076C89.4658 15.076 89.1938 15.144 88.9898 15.28C88.7858 15.412 88.6838 15.576 88.6838 15.772C88.6838 15.952 88.7618 16.11 88.9178 16.246C89.0778 16.378 89.5218 16.54 90.2498 16.732C91.0258 16.928 91.5798 17.182 91.9118 17.494C92.2478 17.802 92.4158 18.204 92.4158 18.7C92.4158 19.304 92.1758 19.79 91.6958 20.158C91.2158 20.526 90.6018 20.71 89.8538 20.71ZM96.0678 20.704C95.4918 20.704 95.0378 20.542 94.7058 20.218C94.3738 19.894 94.2078 19.428 94.2078 18.82V12.526H95.5938V18.646C95.5938 18.938 95.6558 19.156 95.7798 19.3C95.9038 19.444 96.0998 19.516 96.3678 19.516C96.4518 19.516 96.5438 19.506 96.6438 19.486C96.7438 19.462 96.8578 19.424 96.9858 19.372C97.1138 19.316 97.1778 19.288 97.1778 19.288L97.4238 20.356C97.4238 20.356 97.3478 20.392 97.1958 20.464C97.0438 20.532 96.8758 20.588 96.6918 20.632C96.5078 20.68 96.2998 20.704 96.0678 20.704ZM93.1158 15.334V14.176H97.2258V15.334H93.1158Z" fill="#9C9C9C"/>
</g>
<defs>
<filter id="filter0_ddd_305_3648" x="0" y="0" width="115" height="36" filterUnits="userSpaceOnUse" color-interpolation-filters="sRGB">
<feFlood flood-opacity="0" result="BackgroundImageFix"/>
<feColorMatrix in="SourceAlpha" type="matrix" values="0 0 0 0 0 0 0 0 0 0 0 0 0 0 0 0 0 0 127 0" result="hardAlpha"/>
<feOffset dy="1"/>
<feGaussianBlur stdDeviation="0.5"/>
<feColorMatrix type="matrix" values="0 0 0 0 0.619608 0 0 0 0 0.619608 0 0 0 0 0.619608 0 0 0 0.09 0"/>
<feBlend mode="normal" in2="BackgroundImageFix" result="effect1_dropShadow_305_3648"/>
<feColorMatrix in="SourceAlpha" type="matrix" values="0 0 0 0 0 0 0 0 0 0 0 0 0 0 0 0 0 0 127 0" result="hardAlpha"/>
<feOffset dy="2"/>
<feGaussianBlur stdDeviation="0.5"/>
<feColorMatrix type="matrix" values="0 0 0 0 0.619608 0 0 0 0 0.619608 0 0 0 0 0.619608 0 0 0 0.05 0"/>
<feBlend mode="normal" in2="effect1_dropShadow_305_3648" result="effect2_dropShadow_305_3648"/>
<feColorMatrix in="SourceAlpha" type="matrix" values="0 0 0 0 0 0 0 0 0 0 0 0 0 0 0 0 0 0 127 0" result="hardAlpha"/>
<feOffset dy="3"/>
<feGaussianBlur stdDeviation="0.5"/>
<feColorMatrix type="matrix" values="0 0 0 0 0.619608 0 0 0 0 0.619608 0 0 0 0 0.619608 0 0 0 0.01 0"/>
<feBlend mode="normal" in2="effect2_dropShadow_305_3648" result="effect3_dropShadow_305_3648"/>
<feBlend mode="normal" in="SourceGraphic" in2="effect3_dropShadow_305_3648" result="shape"/>
</filter>
</defs>
</svg>
