<svg width="90" height="36" viewBox="0 0 90 36" fill="none" xmlns="http://www.w3.org/2000/svg">
<g filter="url(#filter0_ddd_305_3636)">
<rect x="1" width="88" height="32" rx="16" fill="white"/>
<path d="M9.128 20.5V11.908H14.462V13.198H10.532V19.21H14.588V20.5H9.128ZM9.974 16.714V15.484H13.886V16.714H9.974ZM19.9265 20.5L18.0245 17.626H17.9165L15.4865 14.176H17.0585L18.9605 17.002L19.0505 17.008L21.5105 20.5H19.9265ZM15.4205 20.5L17.9165 16.918H18.1325L19.9685 14.176H21.4805L19.0325 17.632H18.8345L16.9325 20.5H15.4205ZM22.5406 23.122V14.176H23.8906V15.496L23.5906 15.148H23.9266C24.1346 14.8 24.4326 14.518 24.8206 14.302C25.2086 14.082 25.6486 13.972 26.1406 13.972C27.0046 13.972 27.7226 14.28 28.2946 14.896C28.8666 15.508 29.1526 16.322 29.1526 17.338C29.1526 18.35 28.8566 19.164 28.2646 19.78C27.6726 20.396 26.9666 20.704 26.1466 20.704C25.6306 20.704 25.1826 20.6 24.8026 20.392C24.4226 20.184 24.1446 19.926 23.9686 19.618H23.9326V23.122H22.5406ZM25.8166 19.528C26.3966 19.528 26.8626 19.324 27.2146 18.916C27.5706 18.508 27.7486 17.978 27.7486 17.326C27.7486 16.67 27.5646 16.144 27.1966 15.748C26.8326 15.348 26.3746 15.148 25.8226 15.148C25.2586 15.148 24.7926 15.354 24.4246 15.766C24.0606 16.178 23.8786 16.7 23.8786 17.332C23.8786 17.984 24.0546 18.514 24.4066 18.922C24.7626 19.326 25.2326 19.528 25.8166 19.528ZM30.5328 20.5V11.71H31.9248V20.5H30.5328ZM36.7263 20.704C35.7103 20.704 34.8843 20.386 34.2483 19.75C33.6163 19.114 33.3003 18.312 33.3003 17.344C33.3003 16.364 33.6203 15.556 34.2603 14.92C34.9003 14.284 35.7223 13.966 36.7263 13.966C37.7343 13.966 38.5583 14.288 39.1983 14.932C39.8383 15.576 40.1583 16.38 40.1583 17.344C40.1583 18.304 39.8423 19.104 39.2103 19.744C38.5783 20.384 37.7503 20.704 36.7263 20.704ZM36.7263 19.486C37.3143 19.486 37.7983 19.288 38.1783 18.892C38.5583 18.492 38.7483 17.976 38.7483 17.344C38.7483 16.712 38.5583 16.196 38.1783 15.796C37.8023 15.392 37.3183 15.19 36.7263 15.19C36.1343 15.19 35.6483 15.39 35.2683 15.79C34.8923 16.19 34.7043 16.708 34.7043 17.344C34.7043 17.98 34.8923 18.496 35.2683 18.892C35.6483 19.288 36.1343 19.486 36.7263 19.486ZM41.5367 20.5V14.176H42.8507V15.298L42.7067 15.154H42.8927C43.0207 14.806 43.2467 14.522 43.5707 14.302C43.8987 14.078 44.2527 13.966 44.6327 13.966C44.7647 13.966 44.8987 13.98 45.0347 14.008C45.1707 14.032 45.2967 14.068 45.4127 14.116C45.5287 14.164 45.5867 14.188 45.5867 14.188L45.3827 15.472C45.3827 15.472 45.3267 15.45 45.2147 15.406C45.1027 15.358 44.9827 15.32 44.8547 15.292C44.7307 15.264 44.6147 15.25 44.5067 15.25C44.0627 15.25 43.6887 15.418 43.3847 15.754C43.0807 16.09 42.9287 16.562 42.9287 17.17V20.5H41.5367ZM49.2983 20.704C48.3103 20.704 47.5083 20.394 46.8923 19.774C46.2763 19.15 45.9683 18.338 45.9683 17.338C45.9683 16.394 46.2663 15.598 46.8623 14.95C47.4623 14.298 48.2583 13.972 49.2503 13.972C50.1703 13.972 50.9143 14.254 51.4823 14.818C52.0503 15.378 52.3343 16.084 52.3343 16.936V17.68H46.7243V16.744H51.0023C50.9783 16.284 50.8123 15.9 50.5043 15.592C50.2003 15.28 49.7823 15.124 49.2503 15.124C48.6943 15.124 48.2363 15.32 47.8763 15.712C47.5203 16.104 47.3423 16.642 47.3423 17.326C47.3423 18.042 47.5343 18.592 47.9183 18.976C48.3063 19.36 48.7983 19.552 49.3943 19.552C49.6543 19.552 49.8843 19.52 50.0843 19.456C50.2883 19.392 50.4763 19.302 50.6483 19.186C50.8243 19.066 51.0223 18.878 51.2423 18.622L52.1423 19.318C51.8823 19.682 51.6203 19.956 51.3563 20.14C51.0923 20.32 50.8003 20.458 50.4803 20.554C50.1603 20.654 49.7663 20.704 49.2983 20.704Z" fill="#9C9C9C"/>
<rect x="58.5" y="3.5" width="25" height="25" rx="12.5" fill="white"/>
<rect x="58.5" y="3.5" width="25" height="25" rx="12.5" stroke="#E8E8E8"/>
<path d="M69.2503 16.8752V15.1252M71.0003 17.7502V14.2502M72.7503 16.8752V15.1252M75.9587 18.2168V13.7835C75.9584 13.5895 75.9074 13.3988 75.8108 13.2305C75.7143 13.0622 75.5754 12.9221 75.408 12.8239L71.551 10.6073C71.3837 10.5101 71.1937 10.459 71.0003 10.459C70.8069 10.459 70.6169 10.5101 70.4497 10.6073L66.5927 12.8239C66.4249 12.9216 66.2857 13.0617 66.189 13.2301C66.0924 13.3985 66.0417 13.5893 66.042 13.7835V18.218C66.0424 18.412 66.0934 18.6025 66.19 18.7707C66.2865 18.9388 66.4253 19.0789 66.5927 19.177L70.4497 21.3937C70.6169 21.4908 70.8069 21.542 71.0003 21.542C71.1937 21.542 71.3837 21.4908 71.551 21.3937L75.408 19.177C75.5759 19.0793 75.7151 18.9391 75.8118 18.7706C75.9084 18.6021 75.9591 18.4111 75.9587 18.2168Z" stroke="#7144CB" stroke-linecap="round" stroke-linejoin="round"/>
</g>
<defs>
<filter id="filter0_ddd_305_3636" x="0" y="0" width="90" height="36" filterUnits="userSpaceOnUse" color-interpolation-filters="sRGB">
<feFlood flood-opacity="0" result="BackgroundImageFix"/>
<feColorMatrix in="SourceAlpha" type="matrix" values="0 0 0 0 0 0 0 0 0 0 0 0 0 0 0 0 0 0 127 0" result="hardAlpha"/>
<feOffset dy="1"/>
<feGaussianBlur stdDeviation="0.5"/>
<feColorMatrix type="matrix" values="0 0 0 0 0.619608 0 0 0 0 0.619608 0 0 0 0 0.619608 0 0 0 0.09 0"/>
<feBlend mode="normal" in2="BackgroundImageFix" result="effect1_dropShadow_305_3636"/>
<feColorMatrix in="SourceAlpha" type="matrix" values="0 0 0 0 0 0 0 0 0 0 0 0 0 0 0 0 0 0 127 0" result="hardAlpha"/>
<feOffset dy="2"/>
<feGaussianBlur stdDeviation="0.5"/>
<feColorMatrix type="matrix" values="0 0 0 0 0.619608 0 0 0 0 0.619608 0 0 0 0 0.619608 0 0 0 0.05 0"/>
<feBlend mode="normal" in2="effect1_dropShadow_305_3636" result="effect2_dropShadow_305_3636"/>
<feColorMatrix in="SourceAlpha" type="matrix" values="0 0 0 0 0 0 0 0 0 0 0 0 0 0 0 0 0 0 127 0" result="hardAlpha"/>
<feOffset dy="3"/>
<feGaussianBlur stdDeviation="0.5"/>
<feColorMatrix type="matrix" values="0 0 0 0 0.619608 0 0 0 0 0.619608 0 0 0 0 0.619608 0 0 0 0.01 0"/>
<feBlend mode="normal" in2="effect2_dropShadow_305_3636" result="effect3_dropShadow_305_3636"/>
<feBlend mode="normal" in="SourceGraphic" in2="effect3_dropShadow_305_3636" result="shape"/>
</filter>
</defs>
</svg>
