<svg width="99" height="36" viewBox="0 0 99 36" fill="none" xmlns="http://www.w3.org/2000/svg">
<g filter="url(#filter0_ddd_305_3624)">
<rect x="1" width="97" height="32" rx="16" fill="white"/>
<rect x="6.5" y="3.5" width="25" height="25" rx="12.5" fill="white"/>
<rect x="6.5" y="3.5" width="25" height="25" rx="12.5" stroke="#E8E8E8"/>
<path d="M17.2503 16.8752V15.1252M19.0003 17.7502V14.2502M20.7503 16.8752V15.1252M23.9587 18.2168V13.7835C23.9584 13.5895 23.9074 13.3988 23.8108 13.2305C23.7143 13.0622 23.5754 12.9221 23.408 12.8239L19.551 10.6073C19.3837 10.5101 19.1937 10.459 19.0003 10.459C18.8069 10.459 18.6169 10.5101 18.4497 10.6073L14.5927 12.8239C14.4249 12.9216 14.2857 13.0617 14.189 13.2301C14.0924 13.3985 14.0417 13.5893 14.042 13.7835V18.218C14.0424 18.412 14.0934 18.6025 14.19 18.7707C14.2865 18.9388 14.4253 19.0789 14.5927 19.177L18.4497 21.3937C18.6169 21.4908 18.8069 21.542 19.0003 21.542C19.1937 21.542 19.3837 21.4908 19.551 21.3937L23.408 19.177C23.5759 19.0793 23.7151 18.9391 23.8118 18.7706C23.9084 18.6021 23.9591 18.4111 23.9587 18.2168Z" stroke="#FF0000" stroke-linecap="round" stroke-linejoin="round"/>
<path d="M38.128 20.5V11.908H41.386C42.222 11.908 42.894 12.164 43.402 12.676C43.914 13.184 44.17 13.868 44.17 14.728C44.17 15.604 43.908 16.298 43.384 16.81C42.86 17.318 42.15 17.572 41.254 17.572H38.932V16.33H41.128C41.632 16.33 42.026 16.196 42.31 15.928C42.594 15.656 42.736 15.27 42.736 14.77C42.736 14.278 42.592 13.89 42.304 13.606C42.016 13.322 41.634 13.18 41.158 13.18H39.538V20.5H38.128ZM45.5758 20.5V14.176H46.8898V15.298L46.7458 15.154H46.9318C47.0598 14.806 47.2858 14.522 47.6098 14.302C47.9378 14.078 48.2918 13.966 48.6718 13.966C48.8038 13.966 48.9378 13.98 49.0738 14.008C49.2098 14.032 49.3358 14.068 49.4518 14.116C49.5678 14.164 49.6258 14.188 49.6258 14.188L49.4218 15.472C49.4218 15.472 49.3658 15.45 49.2538 15.406C49.1418 15.358 49.0218 15.32 48.8938 15.292C48.7698 15.264 48.6538 15.25 48.5458 15.25C48.1018 15.25 47.7278 15.418 47.4238 15.754C47.1198 16.09 46.9678 16.562 46.9678 17.17V20.5H45.5758ZM53.3373 20.704C52.3493 20.704 51.5473 20.394 50.9313 19.774C50.3153 19.15 50.0073 18.338 50.0073 17.338C50.0073 16.394 50.3053 15.598 50.9013 14.95C51.5013 14.298 52.2973 13.972 53.2893 13.972C54.2093 13.972 54.9533 14.254 55.5213 14.818C56.0893 15.378 56.3733 16.084 56.3733 16.936V17.68H50.7633V16.744H55.0413C55.0173 16.284 54.8513 15.9 54.5433 15.592C54.2393 15.28 53.8213 15.124 53.2893 15.124C52.7333 15.124 52.2753 15.32 51.9153 15.712C51.5593 16.104 51.3813 16.642 51.3813 17.326C51.3813 18.042 51.5733 18.592 51.9573 18.976C52.3453 19.36 52.8373 19.552 53.4333 19.552C53.6933 19.552 53.9233 19.52 54.1233 19.456C54.3273 19.392 54.5153 19.302 54.6873 19.186C54.8633 19.066 55.0613 18.878 55.2813 18.622L56.1813 19.318C55.9213 19.682 55.6593 19.956 55.3953 20.14C55.1313 20.32 54.8393 20.458 54.5193 20.554C54.1993 20.654 53.8053 20.704 53.3373 20.704ZM57.775 20.5V14.176H59.101V15.238L58.987 15.07H59.143C59.339 14.75 59.623 14.488 59.995 14.284C60.371 14.076 60.779 13.972 61.219 13.972C61.707 13.972 62.123 14.078 62.467 14.29C62.815 14.502 63.061 14.812 63.205 15.22C63.425 14.832 63.731 14.528 64.123 14.308C64.519 14.084 64.959 13.972 65.443 13.972C66.163 13.972 66.713 14.176 67.093 14.584C67.477 14.992 67.669 15.562 67.669 16.294V20.5H66.283V16.594C66.283 16.106 66.171 15.744 65.947 15.508C65.727 15.268 65.399 15.148 64.963 15.148C64.535 15.148 64.169 15.31 63.865 15.634C63.565 15.958 63.415 16.37 63.415 16.87V20.5H62.029V16.588C62.029 16.092 61.913 15.728 61.681 15.496C61.453 15.264 61.127 15.148 60.703 15.148C60.279 15.148 59.917 15.314 59.617 15.646C59.317 15.974 59.167 16.372 59.167 16.84V20.5H57.775ZM69.436 20.5V14.176H70.828V20.5H69.436ZM70.144 12.988C69.904 12.988 69.698 12.904 69.526 12.736C69.354 12.564 69.268 12.36 69.268 12.124C69.268 11.88 69.354 11.678 69.526 11.518C69.698 11.358 69.904 11.278 70.144 11.278C70.388 11.278 70.59 11.358 70.75 11.518C70.914 11.678 70.996 11.88 70.996 12.124C70.996 12.36 70.914 12.564 70.75 12.736C70.59 12.904 70.388 12.988 70.144 12.988ZM75.5795 20.704C74.5915 20.704 73.7895 20.394 73.1735 19.774C72.5575 19.15 72.2495 18.338 72.2495 17.338C72.2495 16.394 72.5475 15.598 73.1435 14.95C73.7435 14.298 74.5395 13.972 75.5315 13.972C76.4515 13.972 77.1955 14.254 77.7635 14.818C78.3315 15.378 78.6155 16.084 78.6155 16.936V17.68H73.0055V16.744H77.2835C77.2595 16.284 77.0935 15.9 76.7855 15.592C76.4815 15.28 76.0635 15.124 75.5315 15.124C74.9755 15.124 74.5175 15.32 74.1575 15.712C73.8015 16.104 73.6235 16.642 73.6235 17.326C73.6235 18.042 73.8155 18.592 74.1995 18.976C74.5875 19.36 75.0795 19.552 75.6755 19.552C75.9355 19.552 76.1655 19.52 76.3655 19.456C76.5695 19.392 76.7575 19.302 76.9295 19.186C77.1055 19.066 77.3035 18.878 77.5235 18.622L78.4235 19.318C78.1635 19.682 77.9015 19.956 77.6375 20.14C77.3735 20.32 77.0815 20.458 76.7615 20.554C76.4415 20.654 76.0475 20.704 75.5795 20.704ZM80.0172 20.5V14.176H81.3312V15.298L81.1872 15.154H81.3732C81.5012 14.806 81.7272 14.522 82.0512 14.302C82.3792 14.078 82.7332 13.966 83.1132 13.966C83.2452 13.966 83.3792 13.98 83.5152 14.008C83.6512 14.032 83.7772 14.068 83.8932 14.116C84.0092 14.164 84.0672 14.188 84.0672 14.188L83.8632 15.472C83.8632 15.472 83.8072 15.45 83.6952 15.406C83.5832 15.358 83.4632 15.32 83.3352 15.292C83.2112 15.264 83.0952 15.25 82.9872 15.25C82.5432 15.25 82.1692 15.418 81.8652 15.754C81.5612 16.09 81.4092 16.562 81.4092 17.17V20.5H80.0172ZM87.7788 20.704C86.7908 20.704 85.9888 20.394 85.3728 19.774C84.7568 19.15 84.4488 18.338 84.4488 17.338C84.4488 16.394 84.7468 15.598 85.3428 14.95C85.9428 14.298 86.7388 13.972 87.7308 13.972C88.6508 13.972 89.3948 14.254 89.9628 14.818C90.5308 15.378 90.8148 16.084 90.8148 16.936V17.68H85.2048V16.744H89.4828C89.4588 16.284 89.2928 15.9 88.9848 15.592C88.6808 15.28 88.2628 15.124 87.7308 15.124C87.1748 15.124 86.7168 15.32 86.3568 15.712C86.0008 16.104 85.8228 16.642 85.8228 17.326C85.8228 18.042 86.0148 18.592 86.3988 18.976C86.7868 19.36 87.2788 19.552 87.8748 19.552C88.1348 19.552 88.3648 19.52 88.5648 19.456C88.7688 19.392 88.9568 19.302 89.1288 19.186C89.3048 19.066 89.5028 18.878 89.7228 18.622L90.6228 19.318C90.3628 19.682 90.1008 19.956 89.8368 20.14C89.5728 20.32 89.2808 20.458 88.9608 20.554C88.6408 20.654 88.2468 20.704 87.7788 20.704Z" fill="#9C9C9C"/>
</g>
<defs>
<filter id="filter0_ddd_305_3624" x="0" y="0" width="99" height="36" filterUnits="userSpaceOnUse" color-interpolation-filters="sRGB">
<feFlood flood-opacity="0" result="BackgroundImageFix"/>
<feColorMatrix in="SourceAlpha" type="matrix" values="0 0 0 0 0 0 0 0 0 0 0 0 0 0 0 0 0 0 127 0" result="hardAlpha"/>
<feOffset dy="1"/>
<feGaussianBlur stdDeviation="0.5"/>
<feColorMatrix type="matrix" values="0 0 0 0 0.619608 0 0 0 0 0.619608 0 0 0 0 0.619608 0 0 0 0.09 0"/>
<feBlend mode="normal" in2="BackgroundImageFix" result="effect1_dropShadow_305_3624"/>
<feColorMatrix in="SourceAlpha" type="matrix" values="0 0 0 0 0 0 0 0 0 0 0 0 0 0 0 0 0 0 127 0" result="hardAlpha"/>
<feOffset dy="2"/>
<feGaussianBlur stdDeviation="0.5"/>
<feColorMatrix type="matrix" values="0 0 0 0 0.619608 0 0 0 0 0.619608 0 0 0 0 0.619608 0 0 0 0.05 0"/>
<feBlend mode="normal" in2="effect1_dropShadow_305_3624" result="effect2_dropShadow_305_3624"/>
<feColorMatrix in="SourceAlpha" type="matrix" values="0 0 0 0 0 0 0 0 0 0 0 0 0 0 0 0 0 0 127 0" result="hardAlpha"/>
<feOffset dy="3"/>
<feGaussianBlur stdDeviation="0.5"/>
<feColorMatrix type="matrix" values="0 0 0 0 0.619608 0 0 0 0 0.619608 0 0 0 0 0.619608 0 0 0 0.01 0"/>
<feBlend mode="normal" in2="effect2_dropShadow_305_3624" result="effect3_dropShadow_305_3624"/>
<feBlend mode="normal" in="SourceGraphic" in2="effect3_dropShadow_305_3624" result="shape"/>
</filter>
</defs>
</svg>
