<svg width="87" height="36" viewBox="0 0 87 36" fill="none" xmlns="http://www.w3.org/2000/svg">
<g filter="url(#filter0_ddd_305_3534)">
<rect x="1" width="85" height="32" rx="16" fill="white"/>
<path d="M16.128 20.5V11.908H19.422C20.21 11.908 20.842 12.118 21.318 12.538C21.794 12.954 22.032 13.478 22.032 14.11C22.032 14.598 21.912 15.002 21.672 15.322C21.432 15.638 21.12 15.868 20.736 16.012V16.054C21.224 16.166 21.622 16.404 21.93 16.768C22.242 17.132 22.398 17.576 22.398 18.1C22.398 18.788 22.152 19.36 21.66 19.816C21.172 20.272 20.52 20.5 19.704 20.5H16.128ZM17.538 19.288H19.542C19.95 19.288 20.29 19.168 20.562 18.928C20.834 18.688 20.97 18.376 20.97 17.992C20.97 17.608 20.83 17.29 20.55 17.038C20.274 16.782 19.914 16.654 19.47 16.654H17.136V15.532H19.272C19.676 15.532 20.006 15.422 20.262 15.202C20.518 14.978 20.646 14.68 20.646 14.308C20.646 13.936 20.516 13.648 20.256 13.444C20 13.236 19.676 13.132 19.284 13.132H17.538V19.288ZM26.8982 20.704C25.8822 20.704 25.0562 20.386 24.4202 19.75C23.7882 19.114 23.4722 18.312 23.4722 17.344C23.4722 16.364 23.7922 15.556 24.4322 14.92C25.0722 14.284 25.8942 13.966 26.8982 13.966C27.9062 13.966 28.7302 14.288 29.3702 14.932C30.0102 15.576 30.3302 16.38 30.3302 17.344C30.3302 18.304 30.0142 19.104 29.3822 19.744C28.7502 20.384 27.9222 20.704 26.8982 20.704ZM26.8982 19.486C27.4862 19.486 27.9702 19.288 28.3502 18.892C28.7302 18.492 28.9202 17.976 28.9202 17.344C28.9202 16.712 28.7302 16.196 28.3502 15.796C27.9742 15.392 27.4902 15.19 26.8982 15.19C26.3062 15.19 25.8202 15.39 25.4402 15.79C25.0642 16.19 24.8762 16.708 24.8762 17.344C24.8762 17.98 25.0642 18.496 25.4402 18.892C25.8202 19.288 26.3062 19.486 26.8982 19.486ZM34.7146 20.704C33.6986 20.704 32.8726 20.386 32.2366 19.75C31.6046 19.114 31.2886 18.312 31.2886 17.344C31.2886 16.364 31.6086 15.556 32.2486 14.92C32.8886 14.284 33.7106 13.966 34.7146 13.966C35.7226 13.966 36.5466 14.288 37.1866 14.932C37.8266 15.576 38.1466 16.38 38.1466 17.344C38.1466 18.304 37.8306 19.104 37.1986 19.744C36.5666 20.384 35.7386 20.704 34.7146 20.704ZM34.7146 19.486C35.3026 19.486 35.7866 19.288 36.1666 18.892C36.5466 18.492 36.7366 17.976 36.7366 17.344C36.7366 16.712 36.5466 16.196 36.1666 15.796C35.7906 15.392 35.3066 15.19 34.7146 15.19C34.1226 15.19 33.6366 15.39 33.2566 15.79C32.8806 16.19 32.6926 16.708 32.6926 17.344C32.6926 17.98 32.8806 18.496 33.2566 18.892C33.6366 19.288 34.1226 19.486 34.7146 19.486ZM41.7093 20.71C41.2693 20.71 40.8873 20.654 40.5633 20.542C40.2433 20.43 39.9613 20.272 39.7173 20.068C39.4773 19.864 39.2933 19.654 39.1653 19.438C39.0373 19.222 38.9733 19.114 38.9733 19.114L39.9633 18.508C39.9633 18.508 40.0153 18.59 40.1193 18.754C40.2233 18.914 40.3513 19.06 40.5033 19.192C40.6593 19.324 40.8393 19.426 41.0433 19.498C41.2473 19.566 41.4813 19.6 41.7453 19.6C42.1133 19.6 42.4073 19.528 42.6273 19.384C42.8473 19.236 42.9573 19.034 42.9573 18.778C42.9573 18.534 42.8533 18.344 42.6453 18.208C42.4413 18.068 42.0533 17.93 41.4813 17.794C40.6533 17.594 40.0733 17.34 39.7413 17.032C39.4133 16.72 39.2493 16.31 39.2493 15.802C39.2493 15.258 39.4773 14.816 39.9333 14.476C40.3893 14.136 40.9653 13.966 41.6613 13.966C42.0173 13.966 42.3333 14.004 42.6093 14.08C42.8893 14.156 43.1413 14.27 43.3653 14.422C43.5893 14.574 43.7673 14.734 43.8993 14.902C44.0313 15.066 44.0973 15.148 44.0973 15.148L43.1493 15.796C43.1493 15.796 43.0993 15.74 42.9993 15.628C42.8993 15.512 42.7833 15.412 42.6513 15.328C42.5193 15.24 42.3713 15.176 42.2073 15.136C42.0473 15.096 41.8653 15.076 41.6613 15.076C41.3213 15.076 41.0493 15.144 40.8453 15.28C40.6413 15.412 40.5393 15.576 40.5393 15.772C40.5393 15.952 40.6173 16.11 40.7733 16.246C40.9333 16.378 41.3773 16.54 42.1053 16.732C42.8813 16.928 43.4353 17.182 43.7673 17.494C44.1033 17.802 44.2713 18.204 44.2713 18.7C44.2713 19.304 44.0313 19.79 43.5513 20.158C43.0713 20.526 42.4573 20.71 41.7093 20.71ZM47.9233 20.704C47.3473 20.704 46.8933 20.542 46.5613 20.218C46.2293 19.894 46.0633 19.428 46.0633 18.82V12.526H47.4493V18.646C47.4493 18.938 47.5113 19.156 47.6353 19.3C47.7593 19.444 47.9553 19.516 48.2233 19.516C48.3073 19.516 48.3993 19.506 48.4993 19.486C48.5993 19.462 48.7133 19.424 48.8413 19.372C48.9693 19.316 49.0333 19.288 49.0333 19.288L49.2793 20.356C49.2793 20.356 49.2033 20.392 49.0513 20.464C48.8993 20.532 48.7313 20.588 48.5473 20.632C48.3633 20.68 48.1553 20.704 47.9233 20.704ZM44.9713 15.334V14.176H49.0813V15.334H44.9713Z" fill="#9C9C9C"/>
<rect x="55.5" y="3.5" width="25" height="25" rx="12.5" fill="white"/>
<rect x="55.5" y="3.5" width="25" height="25" rx="12.5" stroke="#E8E8E8"/>
<path d="M66.2503 16.8752V15.1252M68.0003 17.7502V14.2502M69.7503 16.8752V15.1252M72.9587 18.2168V13.7835C72.9584 13.5895 72.9074 13.3988 72.8108 13.2305C72.7143 13.0622 72.5754 12.9221 72.408 12.8239L68.551 10.6073C68.3837 10.5101 68.1937 10.459 68.0003 10.459C67.8069 10.459 67.6169 10.5101 67.4497 10.6073L63.5927 12.8239C63.4249 12.9216 63.2857 13.0617 63.189 13.2301C63.0924 13.3985 63.0417 13.5893 63.042 13.7835V18.218C63.0424 18.412 63.0934 18.6025 63.19 18.7707C63.2865 18.9388 63.4253 19.0789 63.5927 19.177L67.4497 21.3937C67.6169 21.4908 67.8069 21.542 68.0003 21.542C68.1937 21.542 68.3837 21.4908 68.551 21.3937L72.408 19.177C72.5759 19.0793 72.7151 18.9391 72.8118 18.7706C72.9084 18.6021 72.9591 18.4111 72.9587 18.2168Z" stroke="#1877F2" stroke-linecap="round" stroke-linejoin="round"/>
</g>
<defs>
<filter id="filter0_ddd_305_3534" x="0" y="0" width="87" height="36" filterUnits="userSpaceOnUse" color-interpolation-filters="sRGB">
<feFlood flood-opacity="0" result="BackgroundImageFix"/>
<feColorMatrix in="SourceAlpha" type="matrix" values="0 0 0 0 0 0 0 0 0 0 0 0 0 0 0 0 0 0 127 0" result="hardAlpha"/>
<feOffset dy="1"/>
<feGaussianBlur stdDeviation="0.5"/>
<feColorMatrix type="matrix" values="0 0 0 0 0.619608 0 0 0 0 0.619608 0 0 0 0 0.619608 0 0 0 0.09 0"/>
<feBlend mode="normal" in2="BackgroundImageFix" result="effect1_dropShadow_305_3534"/>
<feColorMatrix in="SourceAlpha" type="matrix" values="0 0 0 0 0 0 0 0 0 0 0 0 0 0 0 0 0 0 127 0" result="hardAlpha"/>
<feOffset dy="2"/>
<feGaussianBlur stdDeviation="0.5"/>
<feColorMatrix type="matrix" values="0 0 0 0 0.619608 0 0 0 0 0.619608 0 0 0 0 0.619608 0 0 0 0.05 0"/>
<feBlend mode="normal" in2="effect1_dropShadow_305_3534" result="effect2_dropShadow_305_3534"/>
<feColorMatrix in="SourceAlpha" type="matrix" values="0 0 0 0 0 0 0 0 0 0 0 0 0 0 0 0 0 0 127 0" result="hardAlpha"/>
<feOffset dy="3"/>
<feGaussianBlur stdDeviation="0.5"/>
<feColorMatrix type="matrix" values="0 0 0 0 0.619608 0 0 0 0 0.619608 0 0 0 0 0.619608 0 0 0 0.01 0"/>
<feBlend mode="normal" in2="effect2_dropShadow_305_3534" result="effect3_dropShadow_305_3534"/>
<feBlend mode="normal" in="SourceGraphic" in2="effect3_dropShadow_305_3534" result="shape"/>
</filter>
</defs>
</svg>
