<svg width="100" height="36" viewBox="0 0 100 36" fill="none" xmlns="http://www.w3.org/2000/svg">
<g filter="url(#filter0_ddd_305_3523)">
<rect x="1" width="98" height="32" rx="16" fill="white"/>
<circle cx="19" cy="16" r="12.5" fill="white" stroke="#E8E8E8"/>
<path d="M17.2503 16.8752V15.1252M19.0003 17.7502V14.2502M20.7503 16.8752V15.1252M23.9587 18.2168V13.7835C23.9584 13.5895 23.9074 13.3988 23.8108 13.2305C23.7143 13.0622 23.5754 12.9221 23.408 12.8239L19.551 10.6073C19.3837 10.5101 19.1937 10.459 19.0003 10.459C18.8069 10.459 18.6169 10.5101 18.4497 10.6073L14.5927 12.8239C14.4249 12.9216 14.2857 13.0617 14.189 13.2301C14.0924 13.3985 14.0417 13.5893 14.042 13.7835V18.218C14.0424 18.412 14.0934 18.6025 14.19 18.7707C14.2865 18.9388 14.4253 19.0789 14.5927 19.177L18.4497 21.3937C18.6169 21.4908 18.8069 21.542 19.0003 21.542C19.1937 21.542 19.3837 21.4908 19.551 21.3937L23.408 19.177C23.5759 19.0793 23.7151 18.9391 23.8118 18.7706C23.9084 18.6021 23.9591 18.4111 23.9587 18.2168Z" stroke="#ECB22E" stroke-linecap="round" stroke-linejoin="round"/>
<path d="M40.78 21.204C40.244 21.204 39.768 21.132 39.352 20.988C38.94 20.84 38.59 20.626 38.302 20.346C38.018 20.062 37.806 19.766 37.666 19.458C37.53 19.15 37.462 18.996 37.462 18.996L38.68 18.438C38.68 18.438 38.736 18.556 38.848 18.792C38.96 19.028 39.106 19.238 39.286 19.422C39.47 19.602 39.688 19.74 39.94 19.836C40.196 19.928 40.492 19.974 40.828 19.974C41.336 19.974 41.736 19.854 42.028 19.614C42.324 19.37 42.472 19.058 42.472 18.678C42.472 18.302 42.338 18.002 42.07 17.778C41.802 17.55 41.254 17.32 40.426 17.088C39.466 16.812 38.794 16.478 38.41 16.086C38.03 15.69 37.84 15.19 37.84 14.586C37.84 13.886 38.104 13.314 38.632 12.87C39.16 12.426 39.852 12.204 40.708 12.204C41.164 12.204 41.568 12.262 41.92 12.378C42.272 12.494 42.578 12.666 42.838 12.894C43.098 13.122 43.296 13.36 43.432 13.608C43.572 13.856 43.642 13.98 43.642 13.98L42.448 14.538C42.448 14.538 42.402 14.462 42.31 14.31C42.218 14.154 42.092 14.006 41.932 13.866C41.776 13.722 41.596 13.614 41.392 13.542C41.188 13.466 40.95 13.428 40.678 13.428C40.23 13.428 39.874 13.526 39.61 13.722C39.346 13.918 39.214 14.178 39.214 14.502C39.214 14.818 39.342 15.076 39.598 15.276C39.858 15.472 40.402 15.692 41.23 15.936C42.17 16.204 42.844 16.55 43.252 16.974C43.66 17.394 43.864 17.932 43.864 18.588C43.864 19.356 43.584 19.984 43.024 20.472C42.464 20.96 41.716 21.204 40.78 21.204ZM48.246 21.21C47.246 21.21 46.438 20.89 45.822 20.25C45.206 19.61 44.898 18.804 44.898 17.832C44.898 16.86 45.204 16.056 45.816 15.42C46.432 14.784 47.25 14.466 48.27 14.466C48.626 14.466 48.952 14.51 49.248 14.598C49.544 14.682 49.818 14.812 50.07 14.988C50.326 15.16 50.594 15.424 50.874 15.78L49.89 16.536C49.698 16.304 49.526 16.132 49.374 16.02C49.226 15.904 49.06 15.82 48.876 15.768C48.692 15.716 48.484 15.69 48.252 15.69C47.696 15.69 47.232 15.888 46.86 16.284C46.488 16.676 46.302 17.19 46.302 17.826C46.302 18.466 46.49 18.986 46.866 19.386C47.242 19.782 47.704 19.98 48.252 19.98C48.492 19.98 48.71 19.95 48.906 19.89C49.106 19.826 49.282 19.738 49.434 19.626C49.59 19.514 49.768 19.324 49.968 19.056L51.012 19.74C50.736 20.144 50.468 20.44 50.208 20.628C49.948 20.816 49.652 20.96 49.32 21.06C48.988 21.16 48.63 21.21 48.246 21.21ZM52.1969 21V12.21H53.5829V15.552H53.6189C53.8229 15.24 54.1069 14.982 54.4709 14.778C54.8389 14.574 55.2689 14.472 55.7609 14.472C56.4889 14.472 57.0529 14.676 57.4529 15.084C57.8529 15.492 58.0529 16.05 58.0529 16.758V21H56.6609V17.076C56.6609 16.596 56.5429 16.238 56.3069 16.002C56.0749 15.762 55.7309 15.642 55.2749 15.642C54.7869 15.642 54.3829 15.81 54.0629 16.146C53.7469 16.482 53.5889 16.884 53.5889 17.352V21H52.1969ZM62.6889 21.204C61.7009 21.204 60.8989 20.894 60.2829 20.274C59.6669 19.65 59.3589 18.838 59.3589 17.838C59.3589 16.894 59.6569 16.098 60.2529 15.45C60.8529 14.798 61.6489 14.472 62.6409 14.472C63.5609 14.472 64.3049 14.754 64.8729 15.318C65.4409 15.878 65.7249 16.584 65.7249 17.436V18.18H60.1149V17.244H64.3929C64.3689 16.784 64.2029 16.4 63.8949 16.092C63.5909 15.78 63.1729 15.624 62.6409 15.624C62.0849 15.624 61.6269 15.82 61.2669 16.212C60.9109 16.604 60.7329 17.142 60.7329 17.826C60.7329 18.542 60.9249 19.092 61.3089 19.476C61.6969 19.86 62.1889 20.052 62.7849 20.052C63.0449 20.052 63.2749 20.02 63.4749 19.956C63.6789 19.892 63.8669 19.802 64.0389 19.686C64.2149 19.566 64.4129 19.378 64.6329 19.122L65.5329 19.818C65.2729 20.182 65.0109 20.456 64.7469 20.64C64.4829 20.82 64.1909 20.958 63.8709 21.054C63.5509 21.154 63.1569 21.204 62.6889 21.204ZM69.7726 21.204C68.9006 21.204 68.1706 20.896 67.5826 20.28C66.9986 19.66 66.7066 18.85 66.7066 17.85C66.7066 16.834 66.9966 16.018 67.5766 15.402C68.1566 14.786 68.8686 14.478 69.7126 14.478C70.2126 14.478 70.6526 14.588 71.0326 14.808C71.4166 15.024 71.7026 15.29 71.8906 15.606H71.9326V12.21H73.3186V21H71.9686V19.89L72.1666 20.142H71.9266C71.7186 20.45 71.4286 20.704 71.0566 20.904C70.6846 21.104 70.2566 21.204 69.7726 21.204ZM70.0486 20.034C70.6086 20.034 71.0706 19.836 71.4346 19.44C71.7986 19.044 71.9806 18.516 71.9806 17.856C71.9806 17.196 71.7946 16.664 71.4226 16.26C71.0506 15.856 70.5926 15.654 70.0486 15.654C69.4806 15.654 69.0146 15.856 68.6506 16.26C68.2866 16.664 68.1046 17.192 68.1046 17.844C68.1046 18.5 68.2846 19.03 68.6446 19.434C69.0086 19.834 69.4766 20.034 70.0486 20.034ZM77.3628 21.204C76.6228 21.204 76.0508 20.998 75.6468 20.586C75.2468 20.17 75.0468 19.582 75.0468 18.822V14.676H76.4328V18.558C76.4328 19.07 76.5488 19.448 76.7808 19.692C77.0128 19.932 77.3628 20.052 77.8308 20.052C78.2868 20.052 78.6708 19.89 78.9828 19.566C79.2948 19.238 79.4508 18.824 79.4508 18.324V14.676H80.8428V21H79.5168V19.482L80.1588 20.118H79.4808C79.2848 20.43 79.0028 20.69 78.6348 20.898C78.2668 21.102 77.8428 21.204 77.3628 21.204ZM82.6422 21V12.21H84.0342V21H82.6422ZM88.7397 21.204C87.7517 21.204 86.9497 20.894 86.3337 20.274C85.7177 19.65 85.4097 18.838 85.4097 17.838C85.4097 16.894 85.7077 16.098 86.3037 15.45C86.9037 14.798 87.6997 14.472 88.6917 14.472C89.6117 14.472 90.3557 14.754 90.9237 15.318C91.4917 15.878 91.7757 16.584 91.7757 17.436V18.18H86.1657V17.244H90.4437C90.4197 16.784 90.2537 16.4 89.9457 16.092C89.6417 15.78 89.2237 15.624 88.6917 15.624C88.1357 15.624 87.6777 15.82 87.3177 16.212C86.9617 16.604 86.7837 17.142 86.7837 17.826C86.7837 18.542 86.9757 19.092 87.3597 19.476C87.7477 19.86 88.2397 20.052 88.8357 20.052C89.0957 20.052 89.3257 20.02 89.5257 19.956C89.7297 19.892 89.9177 19.802 90.0897 19.686C90.2657 19.566 90.4637 19.378 90.6837 19.122L91.5837 19.818C91.3237 20.182 91.0617 20.456 90.7977 20.64C90.5337 20.82 90.2417 20.958 89.9217 21.054C89.6017 21.154 89.2077 21.204 88.7397 21.204Z" fill="#9C9C9C"/>
</g>
<defs>
<filter id="filter0_ddd_305_3523" x="0" y="0" width="100" height="36" filterUnits="userSpaceOnUse" color-interpolation-filters="sRGB">
<feFlood flood-opacity="0" result="BackgroundImageFix"/>
<feColorMatrix in="SourceAlpha" type="matrix" values="0 0 0 0 0 0 0 0 0 0 0 0 0 0 0 0 0 0 127 0" result="hardAlpha"/>
<feOffset dy="1"/>
<feGaussianBlur stdDeviation="0.5"/>
<feColorMatrix type="matrix" values="0 0 0 0 0.619608 0 0 0 0 0.619608 0 0 0 0 0.619608 0 0 0 0.09 0"/>
<feBlend mode="normal" in2="BackgroundImageFix" result="effect1_dropShadow_305_3523"/>
<feColorMatrix in="SourceAlpha" type="matrix" values="0 0 0 0 0 0 0 0 0 0 0 0 0 0 0 0 0 0 127 0" result="hardAlpha"/>
<feOffset dy="2"/>
<feGaussianBlur stdDeviation="0.5"/>
<feColorMatrix type="matrix" values="0 0 0 0 0.619608 0 0 0 0 0.619608 0 0 0 0 0.619608 0 0 0 0.05 0"/>
<feBlend mode="normal" in2="effect1_dropShadow_305_3523" result="effect2_dropShadow_305_3523"/>
<feColorMatrix in="SourceAlpha" type="matrix" values="0 0 0 0 0 0 0 0 0 0 0 0 0 0 0 0 0 0 127 0" result="hardAlpha"/>
<feOffset dy="3"/>
<feGaussianBlur stdDeviation="0.5"/>
<feColorMatrix type="matrix" values="0 0 0 0 0.619608 0 0 0 0 0.619608 0 0 0 0 0.619608 0 0 0 0.01 0"/>
<feBlend mode="normal" in2="effect2_dropShadow_305_3523" result="effect3_dropShadow_305_3523"/>
<feBlend mode="normal" in="SourceGraphic" in2="effect3_dropShadow_305_3523" result="shape"/>
</filter>
</defs>
</svg>
